Movie Info
 
 
http://www.imdb.com/title/tt1250777/
Director:Matthew Vaughn
Writers:Jane Goldman (screenplay) &Matthew Vaughn (screenplay) 
Genre:Action | Crime | Thriller



Plot
 
Dave Lizewski is an unnoticed high school student and comic book fan who one day decides
to become a super-hero, even though he has no powers, training or meaningful reason to 
do so.

 

Video


ID : 1
Format : AVC
Format/Info : Advanced Video Codec
Format profile : High@L3.0
Format settings, CABAC : Yes
Format settings, ReFrames : 3 frames
Muxing mode : Container profile=Unknown@3.0
Codec ID : V_MPEG4/ISO/AVC
Duration : 1h 52mn
Bit rate : 1 418 Kbps
Nominal bit rate : 1 465 Kbps
Width : 720 pixels
Height : 320 pixels
Display aspect ratio : 2.25:1
Frame rate : 25.000 fps
Resolution : 8 bits
Colorimetry : 4:2:0
Scan type : Progressive
Bits/(Pixel*Frame) : 0.246
Stream size : 1.12 GiB (77%)
Writing library : x264 core 79



Audio


ID : 2
Format : AC-3
Format/Info : Audio Coding 3
Codec ID : A_AC3
Duration : 1h 52mn
Bit rate mode : Constant
Bit rate : 384 Kbps
Channel(s) : 6 channels
Channel positions : Front: L C R, Surround: L R, LFE
Sampling rate : 48.0 KHz
Stream size : 310 MiB (21%)
Language : English



Screenshots

 
http://postimg.com/image/17000/16474.jpg